<?xml version="1.0" encoding="UTF-8" standalone="no"?>
<svg
   version="1.0"
   width="154.5162pt"
   height="146.95084pt"
   viewBox="0 0 154.5162 146.95084"
   preserveAspectRatio="xMidYMid"
   id="svg9"
   sodipodi:docname="knowylogo.svg"
   inkscape:version="1.4.2 (ebf0e940d0, 2025-05-08)"
   xmlns:inkscape="http://www.inkscape.org/namespaces/inkscape"
   xmlns:sodipodi="http://sodipodi.sourceforge.net/DTD/sodipodi-0.dtd"
   xmlns="http://www.w3.org/2000/svg"
   xmlns:svg="http://www.w3.org/2000/svg">
  <defs
     id="defs9" />
  <sodipodi:namedview
     id="namedview9"
     pagecolor="#505050"
     bordercolor="#eeeeee"
     borderopacity="1"
     inkscape:showpageshadow="0"
     inkscape:pageopacity="0"
     inkscape:pagecheckerboard="0"
     inkscape:deskcolor="#505050"
     inkscape:document-units="pt"
     inkscape:zoom="3.0898211"
     inkscape:cx="87.383699"
     inkscape:cy="85.765482"
     inkscape:window-width="1920"
     inkscape:window-height="1006"
     inkscape:window-x="1600"
     inkscape:window-y="0"
     inkscape:window-maximized="1"
     inkscape:current-layer="svg9" />
  <path
     style="opacity:0.36360017;fill:#E03C3C;stroke:#ffffff;stroke-width:0;stroke-linejoin:round;fill-opacity:1;stroke-dasharray:none"
     d="M 76.460737,8.4956378 57.770334,2.427325 35.196212,15.049414 17.719472,28.399702 13.835752,44.66278 3.398255,58.255799 4.1264525,77.188935 6.0683124,88.354627 8.73837,100.73399 l 7.76744,7.28197 8.252905,3.88373 7.039242,2.67005 12.379358,7.28197 11.408427,0.97093 5.825579,-1.94185 10.437498,2.18459 15.777611,0.48546 c 0,0 22.33139,2.67006 35.92441,-2.91279 13.59302,-5.58284 23.78778,-23.059585 23.78778,-23.059585 L 149.76595,75.004343 150.25141,59.226729 139.57118,42.235454 132.04648,24.030517 110.68602,10.437497 96.3648,3.88372 80.829922,5.340115 Z"
     id="bg-brain" />
  <g
     transform="matrix(0.1,0,0,-0.1,-57.384933,342.94174)"
     fill="#000000"
     stroke="none"
     id="border-brain">
    <path
       d="m 1063,3406 c -29,-14 -67,-41 -85,-60 -18,-20 -38,-36 -45,-36 -7,0 -36,-11 -65,-24 -93,-43 -165,-139 -176,-234 -4,-34 -13,-55 -38,-80 -65,-67 -95,-174 -73,-267 6,-27 12,-90 14,-140 2,-90 12,-119 61,-190 24,-33 89,-71 150,-85 39,-10 66,-23 80,-40 32,-37 99,-69 160,-76 61,-8 60,-3 22,-113 -22,-67 -23,-90 -2,-98 24,-9 38,15 74,128 18,54 36,99 41,99 5,0 26,-7 46,-15 22,-10 68,-15 124,-15 h 89 v -94 c 0,-76 3,-95 16,-100 26,-10 202,-7 209,4 3,6 3,19 0,30 -6,18 -15,20 -80,20 h -74 l -3,103 -3,102 -115,1 c -103,0 -121,3 -169,26 -54,27 -55,27 -79,8 -60,-47 -145,-28 -211,46 -32,36 -45,44 -74,44 -50,0 -102,25 -142,68 -46,48 -61,101 -46,165 9,41 8,54 -6,85 -12,25 -18,59 -17,103 1,76 23,124 80,172 27,24 34,37 34,66 0,59 19,110 56,151 36,40 106,80 138,80 10,0 44,24 75,53 72,66 131,85 202,63 89,-27 89,-28 89,-143 0,-91 2,-103 19,-113 15,-7 23,-6 35,6 13,12 16,38 16,118 0,120 3,125 82,133 81,8 134,-11 192,-68 27,-27 58,-49 68,-49 26,0 98,-37 131,-69 41,-37 68,-96 71,-151 2,-41 8,-52 39,-79 47,-41 66,-82 73,-151 4,-39 1,-68 -11,-100 -19,-49 -19,-50 -9,-132 3,-31 2,-70 -4,-86 -20,-57 32,-88 58,-34 8,15 15,68 16,122 1,52 7,113 13,135 25,94 3,188 -64,270 -30,37 -45,64 -45,84 0,92 -106,216 -215,251 -22,7 -59,30 -81,51 -62,56 -100,72 -184,77 -63,4 -85,0 -127,-18 -49,-21 -52,-21 -84,-4 -22,11 -64,19 -114,21 -69,4 -87,1 -132,-21 z"
       id="path1" />
    <path
       d="m 1098,3036 c -15,-19 -39,-36 -56,-39 -43,-9 -54,-56 -16,-71 32,-12 122,50 136,94 7,19 -9,50 -25,50 -7,0 -24,-15 -39,-34 z"
       id="path2" />
    <path
       d="m 1543,3063 c -41,-16 18,-111 80,-130 75,-23 94,34 22,66 -25,11 -45,24 -45,30 0,11 -28,41 -38,40 -4,0 -13,-3 -19,-6 z"
       id="path3" />
    <path
       d="m 1071,2814 c -59,-75 25,-180 89,-112 28,31 27,88 -3,116 -31,29 -61,28 -86,-4 z"
       id="path4" />
    <path
       d="m 1542,2820 c -43,-40 -36,-109 13,-132 48,-22 105,31 91,86 -7,30 -43,66 -66,66 -9,0 -26,-9 -38,-20 z"
       id="path5" />
    <path
       d="m 1241,2616 c -16,-19 -2,-47 35,-71 67,-44 199,-7 192,53 -4,34 -30,39 -64,13 -33,-26 -61,-26 -99,-1 -36,24 -49,25 -64,6 z"
       id="path6" />
    <path
       d="m 1752,2547 c -11,-12 -29,-67 -91,-266 -33,-105 -32,-127 4,-119 20,4 27,22 90,221 37,118 44,151 35,163 -15,17 -24,18 -38,1 z"
       id="path7" />
    <path
       d="m 1510,2424 c -33,-31 -60,-62 -60,-69 0,-12 67,-78 109,-107 26,-19 51,-14 51,10 0,9 -19,35 -41,58 l -41,42 41,37 c 43,39 52,69 25,79 -9,3 -17,6 -19,6 -3,0 -31,-25 -65,-56 z"
       id="path8" />
    <path
       d="m 1830,2465 c -11,-14 -6,-23 34,-64 l 47,-48 -40,-36 c -23,-20 -41,-45 -41,-56 0,-37 29,-30 90,20 78,66 78,81 1,148 -64,56 -72,59 -91,36 z"
       id="path9" />
  </g>
</svg>
